<mxfile host="Electron" modified="2023-12-20T08:48:00.409Z" agent="Mozilla/5.0 (Macintosh; Intel Mac OS X 10_15_7) AppleWebKit/537.36 (KHTML, like Gecko) draw.io/22.1.11 Chrome/114.0.5735.289 Electron/25.9.8 Safari/537.36" etag="CQl0GYIzDjZLWDq-Hr4F" version="22.1.11" type="device" pages="2">
  <diagram name="Page-1" id="GfKFb-5luROZLSDE2zqW">
    <mxGraphModel dx="2074" dy="1214" grid="0" gridSize="10" guides="1" tooltips="1" connect="1" arrows="1" fold="1" page="1" pageScale="1" pageWidth="2336" pageHeight="1654" math="0" shadow="0">
      <root>
        <mxCell id="0" />
        <mxCell id="1" parent="0" />
        <mxCell id="Lb1ookzs8t3m_i60H8Mo-3" style="edgeStyle=orthogonalEdgeStyle;rounded=0;orthogonalLoop=1;jettySize=auto;html=1;entryX=0;entryY=0.5;entryDx=0;entryDy=0;sketch=1;curveFitting=1;jiggle=2;fontFamily=Comic Sans MS;fontStyle=1;fontSize=13;" parent="1" source="Lb1ookzs8t3m_i60H8Mo-1" target="Lb1ookzs8t3m_i60H8Mo-2" edge="1">
          <mxGeometry relative="1" as="geometry" />
        </mxCell>
        <mxCell id="Lb1ookzs8t3m_i60H8Mo-1" value="BSSH" style="rounded=1;whiteSpace=wrap;html=1;sketch=1;curveFitting=1;jiggle=2;fontFamily=Comic Sans MS;fontStyle=1;fillColor=#d0cee2;strokeColor=#56517e;fontSize=13;" parent="1" vertex="1">
          <mxGeometry x="360" y="240" width="90" height="60" as="geometry" />
        </mxCell>
        <mxCell id="Lb1ookzs8t3m_i60H8Mo-17" style="edgeStyle=orthogonalEdgeStyle;rounded=0;orthogonalLoop=1;jettySize=auto;html=1;exitX=0.75;exitY=0;exitDx=0;exitDy=0;entryX=0;entryY=0.5;entryDx=0;entryDy=0;strokeColor=default;sketch=1;curveFitting=1;jiggle=2;fontFamily=Comic Sans MS;fontStyle=1;fontSize=13;" parent="1" source="Lb1ookzs8t3m_i60H8Mo-2" target="Lb1ookzs8t3m_i60H8Mo-6" edge="1">
          <mxGeometry relative="1" as="geometry" />
        </mxCell>
        <mxCell id="Lb1ookzs8t3m_i60H8Mo-18" style="edgeStyle=orthogonalEdgeStyle;rounded=0;orthogonalLoop=1;jettySize=auto;html=1;exitX=1;exitY=0.25;exitDx=0;exitDy=0;sketch=1;curveFitting=1;jiggle=2;fontFamily=Comic Sans MS;fontStyle=1;fontSize=13;" parent="1" source="Lb1ookzs8t3m_i60H8Mo-2" target="Lb1ookzs8t3m_i60H8Mo-4" edge="1">
          <mxGeometry relative="1" as="geometry" />
        </mxCell>
        <mxCell id="Lb1ookzs8t3m_i60H8Mo-19" style="edgeStyle=orthogonalEdgeStyle;rounded=0;orthogonalLoop=1;jettySize=auto;html=1;exitX=1;exitY=0.75;exitDx=0;exitDy=0;entryX=0;entryY=0.5;entryDx=0;entryDy=0;sketch=1;curveFitting=1;jiggle=2;shadow=0;fontFamily=Comic Sans MS;fontStyle=1;fontSize=13;flowAnimation=0;" parent="1" source="Lb1ookzs8t3m_i60H8Mo-2" target="Lb1ookzs8t3m_i60H8Mo-5" edge="1">
          <mxGeometry relative="1" as="geometry" />
        </mxCell>
        <mxCell id="Lb1ookzs8t3m_i60H8Mo-2" value="BCL_CONVERT" style="rounded=1;whiteSpace=wrap;html=1;sketch=1;curveFitting=1;jiggle=2;fontFamily=Comic Sans MS;fillColor=#b0e3e6;strokeColor=#0e8088;fontStyle=1;fontSize=13;" parent="1" vertex="1">
          <mxGeometry x="510" y="240" width="120" height="60" as="geometry" />
        </mxCell>
        <mxCell id="Lb1ookzs8t3m_i60H8Mo-22" style="edgeStyle=orthogonalEdgeStyle;rounded=0;orthogonalLoop=1;jettySize=auto;html=1;exitX=1;exitY=0.5;exitDx=0;exitDy=0;entryX=0;entryY=0.5;entryDx=0;entryDy=0;sketch=1;curveFitting=1;jiggle=2;fontFamily=Comic Sans MS;fontStyle=1;fontSize=13;" parent="1" source="Lb1ookzs8t3m_i60H8Mo-4" target="Lb1ookzs8t3m_i60H8Mo-20" edge="1">
          <mxGeometry relative="1" as="geometry" />
        </mxCell>
        <mxCell id="Lb1ookzs8t3m_i60H8Mo-27" style="edgeStyle=orthogonalEdgeStyle;rounded=0;orthogonalLoop=1;jettySize=auto;html=1;exitX=0.5;exitY=1;exitDx=0;exitDy=0;entryX=0;entryY=0.25;entryDx=0;entryDy=0;sketch=1;curveFitting=1;jiggle=2;fontFamily=Comic Sans MS;fontStyle=1;fontSize=13;" parent="1" source="Lb1ookzs8t3m_i60H8Mo-4" target="Lb1ookzs8t3m_i60H8Mo-8" edge="1">
          <mxGeometry relative="1" as="geometry" />
        </mxCell>
        <mxCell id="Lb1ookzs8t3m_i60H8Mo-4" value="WGS_ALIGNMENT_QC" style="rounded=1;whiteSpace=wrap;html=1;sketch=1;curveFitting=1;jiggle=2;fontFamily=Comic Sans MS;fillColor=#b0e3e6;strokeColor=#0e8088;fontStyle=1;fontSize=13;" parent="1" vertex="1">
          <mxGeometry x="730" y="195" width="200" height="60" as="geometry" />
        </mxCell>
        <mxCell id="Lb1ookzs8t3m_i60H8Mo-26" style="edgeStyle=orthogonalEdgeStyle;rounded=0;orthogonalLoop=1;jettySize=auto;html=1;exitX=0.64;exitY=1;exitDx=0;exitDy=0;entryX=0;entryY=0.5;entryDx=0;entryDy=0;sketch=1;curveFitting=1;jiggle=2;fontFamily=Comic Sans MS;fontStyle=1;fontSize=13;exitPerimeter=0;" parent="1" source="Lb1ookzs8t3m_i60H8Mo-5" target="Lb1ookzs8t3m_i60H8Mo-7" edge="1">
          <mxGeometry relative="1" as="geometry" />
        </mxCell>
        <mxCell id="HXNQhajzmhDPULdBo1zW-2" style="edgeStyle=orthogonalEdgeStyle;rounded=0;orthogonalLoop=1;jettySize=auto;html=1;exitX=1;exitY=0.5;exitDx=0;exitDy=0;entryX=0;entryY=0.75;entryDx=0;entryDy=0;sketch=1;curveFitting=1;jiggle=2;" parent="1" source="Lb1ookzs8t3m_i60H8Mo-5" target="Lb1ookzs8t3m_i60H8Mo-20" edge="1">
          <mxGeometry relative="1" as="geometry" />
        </mxCell>
        <mxCell id="Lb1ookzs8t3m_i60H8Mo-5" value="WTS_ALIGNMENT_QC" style="rounded=1;whiteSpace=wrap;html=1;sketch=1;curveFitting=1;jiggle=2;fontFamily=Comic Sans MS;fillColor=#b0e3e6;strokeColor=#0e8088;fontStyle=1;fontSize=13;" parent="1" vertex="1">
          <mxGeometry x="730" y="370" width="200" height="60" as="geometry" />
        </mxCell>
        <mxCell id="Lb1ookzs8t3m_i60H8Mo-45" style="edgeStyle=orthogonalEdgeStyle;rounded=0;orthogonalLoop=1;jettySize=auto;html=1;exitX=0.5;exitY=0;exitDx=0;exitDy=0;sketch=1;curveFitting=1;jiggle=2;fontStyle=1;fontSize=13;" parent="1" source="Lb1ookzs8t3m_i60H8Mo-6" target="Lb1ookzs8t3m_i60H8Mo-44" edge="1">
          <mxGeometry relative="1" as="geometry" />
        </mxCell>
        <mxCell id="HXNQhajzmhDPULdBo1zW-3" style="edgeStyle=orthogonalEdgeStyle;rounded=0;orthogonalLoop=1;jettySize=auto;html=1;exitX=1;exitY=0.5;exitDx=0;exitDy=0;entryX=0;entryY=0.25;entryDx=0;entryDy=0;sketch=1;curveFitting=1;jiggle=2;" parent="1" source="Lb1ookzs8t3m_i60H8Mo-6" target="Lb1ookzs8t3m_i60H8Mo-20" edge="1">
          <mxGeometry relative="1" as="geometry" />
        </mxCell>
        <mxCell id="Lb1ookzs8t3m_i60H8Mo-6" value="TSO_CTDNA_TUMOR_ONLY" style="rounded=1;whiteSpace=wrap;html=1;sketch=1;curveFitting=1;jiggle=2;fontFamily=Comic Sans MS;fillColor=#b0e3e6;strokeColor=#0e8088;fontStyle=1;fontSize=13;" parent="1" vertex="1">
          <mxGeometry x="730" y="100" width="200" height="60" as="geometry" />
        </mxCell>
        <mxCell id="Lb1ookzs8t3m_i60H8Mo-7" value="WTS_TUMOR_ONLY" style="rounded=1;whiteSpace=wrap;html=1;sketch=1;curveFitting=1;jiggle=2;fontFamily=Comic Sans MS;fillColor=#b0e3e6;strokeColor=#0e8088;fontStyle=1;fontSize=13;" parent="1" vertex="1">
          <mxGeometry x="1000" y="520" width="180" height="60" as="geometry" />
        </mxCell>
        <mxCell id="Lb1ookzs8t3m_i60H8Mo-28" style="edgeStyle=orthogonalEdgeStyle;rounded=0;orthogonalLoop=1;jettySize=auto;html=1;exitX=1;exitY=0.5;exitDx=0;exitDy=0;sketch=1;curveFitting=1;jiggle=2;fontFamily=Comic Sans MS;fontStyle=1;fontSize=13;" parent="1" source="Lb1ookzs8t3m_i60H8Mo-8" target="Lb1ookzs8t3m_i60H8Mo-12" edge="1">
          <mxGeometry relative="1" as="geometry" />
        </mxCell>
        <mxCell id="Lb1ookzs8t3m_i60H8Mo-39" style="edgeStyle=orthogonalEdgeStyle;rounded=0;orthogonalLoop=1;jettySize=auto;html=1;exitX=0.5;exitY=1;exitDx=0;exitDy=0;entryX=0.5;entryY=0;entryDx=0;entryDy=0;sketch=1;curveFitting=1;jiggle=2;fontFamily=Comic Sans MS;fontStyle=1;fontSize=13;" parent="1" source="Lb1ookzs8t3m_i60H8Mo-8" target="Lb1ookzs8t3m_i60H8Mo-14" edge="1">
          <mxGeometry relative="1" as="geometry">
            <Array as="points">
              <mxPoint x="1090" y="472" />
              <mxPoint x="1370" y="472" />
            </Array>
          </mxGeometry>
        </mxCell>
        <mxCell id="2BDa7LuFJiq9-utaPUtY-1" style="edgeStyle=orthogonalEdgeStyle;rounded=0;orthogonalLoop=1;jettySize=auto;html=1;exitX=0;exitY=0.75;exitDx=0;exitDy=0;entryX=1;entryY=0.5;entryDx=0;entryDy=0;endArrow=diamondThin;endFill=1;dashed=1;sketch=1;curveFitting=1;jiggle=2;endSize=14;" parent="1" source="Lb1ookzs8t3m_i60H8Mo-8" target="Lb1ookzs8t3m_i60H8Mo-2" edge="1">
          <mxGeometry relative="1" as="geometry" />
        </mxCell>
        <mxCell id="2BDa7LuFJiq9-utaPUtY-2" value="&lt;i style=&quot;border-color: var(--border-color); font-family: &amp;quot;Comic Sans MS&amp;quot;; font-size: 13px; font-weight: 700;&quot;&gt;use FASTQs as input&lt;/i&gt;" style="edgeLabel;html=1;align=center;verticalAlign=middle;resizable=0;points=[];" parent="2BDa7LuFJiq9-utaPUtY-1" vertex="1" connectable="0">
          <mxGeometry x="-0.4831" relative="1" as="geometry">
            <mxPoint x="4" y="-10" as="offset" />
          </mxGeometry>
        </mxCell>
        <mxCell id="Lb1ookzs8t3m_i60H8Mo-8" value="WGS_TUMOR_NORMAL" style="rounded=1;whiteSpace=wrap;html=1;sketch=1;curveFitting=1;jiggle=2;fontFamily=Comic Sans MS;fillColor=#b0e3e6;strokeColor=#0e8088;fontStyle=1;fontSize=13;" parent="1" vertex="1">
          <mxGeometry x="1000" y="300" width="180" height="60" as="geometry" />
        </mxCell>
        <mxCell id="q8SPQW6we7VWeCYIPQvV-9" style="edgeStyle=orthogonalEdgeStyle;rounded=0;orthogonalLoop=1;jettySize=auto;html=1;exitX=0.5;exitY=1;exitDx=0;exitDy=0;entryX=1;entryY=0.5;entryDx=0;entryDy=0;endArrow=diamondThin;endFill=1;strokeWidth=1;endSize=14;dashed=1;flowAnimation=0;sketch=1;curveFitting=1;jiggle=2;" parent="1" source="Lb1ookzs8t3m_i60H8Mo-9" target="Lb1ookzs8t3m_i60H8Mo-7" edge="1">
          <mxGeometry relative="1" as="geometry" />
        </mxCell>
        <mxCell id="q8SPQW6we7VWeCYIPQvV-10" value="&lt;i style=&quot;border-color: var(--border-color); font-family: &amp;quot;Comic Sans MS&amp;quot;; font-size: 13px; font-weight: 700;&quot;&gt;use transcriptome &lt;br&gt;bam as input&lt;/i&gt;" style="edgeLabel;html=1;align=center;verticalAlign=middle;resizable=0;points=[];" parent="q8SPQW6we7VWeCYIPQvV-9" vertex="1" connectable="0">
          <mxGeometry x="-0.4444" y="-3" relative="1" as="geometry">
            <mxPoint x="10" y="-159" as="offset" />
          </mxGeometry>
        </mxCell>
        <mxCell id="Lb1ookzs8t3m_i60H8Mo-9" value="RNASUM" style="rounded=1;whiteSpace=wrap;html=1;sketch=1;curveFitting=1;jiggle=2;fontFamily=Comic Sans MS;fillColor=#b0e3e6;strokeColor=#0e8088;fontStyle=1;fontSize=13;" parent="1" vertex="1">
          <mxGeometry x="1620" y="300" width="180" height="60" as="geometry" />
        </mxCell>
        <mxCell id="Lb1ookzs8t3m_i60H8Mo-38" style="edgeStyle=orthogonalEdgeStyle;rounded=0;orthogonalLoop=1;jettySize=auto;html=1;exitX=1;exitY=0.5;exitDx=0;exitDy=0;entryX=0;entryY=0.5;entryDx=0;entryDy=0;sketch=1;curveFitting=1;jiggle=2;fontFamily=Comic Sans MS;fontStyle=1;fontSize=13;" parent="1" source="Lb1ookzs8t3m_i60H8Mo-10" target="Lb1ookzs8t3m_i60H8Mo-11" edge="1">
          <mxGeometry relative="1" as="geometry" />
        </mxCell>
        <mxCell id="q8SPQW6we7VWeCYIPQvV-16" style="edgeStyle=orthogonalEdgeStyle;rounded=0;orthogonalLoop=1;jettySize=auto;html=1;exitX=0;exitY=0.5;exitDx=0;exitDy=0;entryX=0.75;entryY=1;entryDx=0;entryDy=0;endArrow=diamondThin;endFill=1;endSize=14;sketch=1;curveFitting=1;jiggle=2;dashed=1;" parent="1" source="Lb1ookzs8t3m_i60H8Mo-10" target="Lb1ookzs8t3m_i60H8Mo-2" edge="1">
          <mxGeometry relative="1" as="geometry" />
        </mxCell>
        <mxCell id="q8SPQW6we7VWeCYIPQvV-17" value="&lt;i style=&quot;border-color: var(--border-color); font-family: &amp;quot;Comic Sans MS&amp;quot;; font-size: 13px; font-weight: 700;&quot;&gt;use FASTQs as input&lt;/i&gt;" style="edgeLabel;html=1;align=center;verticalAlign=middle;resizable=0;points=[];" parent="q8SPQW6we7VWeCYIPQvV-16" vertex="1" connectable="0">
          <mxGeometry x="-0.6586" y="-3" relative="1" as="geometry">
            <mxPoint x="-29" y="-25" as="offset" />
          </mxGeometry>
        </mxCell>
        <mxCell id="Lb1ookzs8t3m_i60H8Mo-10" value="STAR_ALIGNMENT" style="rounded=1;whiteSpace=wrap;html=1;sketch=1;curveFitting=1;jiggle=2;fontFamily=Comic Sans MS;fillColor=#e3c800;strokeColor=#B09500;fontColor=#000000;fontStyle=1;fontSize=13;" parent="1" vertex="1">
          <mxGeometry x="730" y="720" width="180" height="60" as="geometry" />
        </mxCell>
        <mxCell id="Lb1ookzs8t3m_i60H8Mo-43" style="edgeStyle=orthogonalEdgeStyle;rounded=0;orthogonalLoop=1;jettySize=auto;html=1;exitX=1;exitY=0.5;exitDx=0;exitDy=0;entryX=0;entryY=0.75;entryDx=0;entryDy=0;sketch=1;curveFitting=1;jiggle=2;fontFamily=Comic Sans MS;fontStyle=1;fontSize=13;" parent="1" source="Lb1ookzs8t3m_i60H8Mo-11" target="Lb1ookzs8t3m_i60H8Mo-16" edge="1">
          <mxGeometry relative="1" as="geometry" />
        </mxCell>
        <mxCell id="Lb1ookzs8t3m_i60H8Mo-11" value="ONCOANALYSER_WTS" style="rounded=1;whiteSpace=wrap;html=1;sketch=1;curveFitting=1;jiggle=2;fontFamily=Comic Sans MS;fillColor=#e3c800;strokeColor=#B09500;fontColor=#000000;fontStyle=1;fontSize=13;" parent="1" vertex="1">
          <mxGeometry x="1000" y="720" width="180" height="60" as="geometry" />
        </mxCell>
        <mxCell id="Lb1ookzs8t3m_i60H8Mo-29" style="edgeStyle=orthogonalEdgeStyle;rounded=0;orthogonalLoop=1;jettySize=auto;html=1;exitX=1;exitY=0.5;exitDx=0;exitDy=0;sketch=1;curveFitting=1;jiggle=2;fontFamily=Comic Sans MS;fontStyle=1;fontSize=13;" parent="1" source="Lb1ookzs8t3m_i60H8Mo-12" target="Lb1ookzs8t3m_i60H8Mo-9" edge="1">
          <mxGeometry relative="1" as="geometry" />
        </mxCell>
        <mxCell id="Lb1ookzs8t3m_i60H8Mo-30" value="&lt;font style=&quot;font-size: 13px;&quot;&gt;PANCAN&lt;/font&gt;" style="edgeLabel;html=1;align=center;verticalAlign=middle;resizable=0;points=[];fontFamily=Comic Sans MS;fontStyle=1;fontSize=13;" parent="Lb1ookzs8t3m_i60H8Mo-29" vertex="1" connectable="0">
          <mxGeometry x="-0.1111" y="4" relative="1" as="geometry">
            <mxPoint x="10" as="offset" />
          </mxGeometry>
        </mxCell>
        <mxCell id="Lb1ookzs8t3m_i60H8Mo-12" value="UMCCRISE" style="rounded=1;whiteSpace=wrap;html=1;sketch=1;curveFitting=1;jiggle=2;fontFamily=Comic Sans MS;fillColor=#b0e3e6;strokeColor=#0e8088;fontStyle=1;fontSize=13;" parent="1" vertex="1">
          <mxGeometry x="1280" y="300" width="180" height="60" as="geometry" />
        </mxCell>
        <mxCell id="q8SPQW6we7VWeCYIPQvV-13" style="edgeStyle=orthogonalEdgeStyle;rounded=0;orthogonalLoop=1;jettySize=auto;html=1;exitX=0.25;exitY=0;exitDx=0;exitDy=0;entryX=0.25;entryY=1;entryDx=0;entryDy=0;sketch=1;curveFitting=1;jiggle=2;dashed=1;endArrow=diamondThin;endFill=1;endSize=14;" parent="1" source="Lb1ookzs8t3m_i60H8Mo-13" target="Lb1ookzs8t3m_i60H8Mo-8" edge="1">
          <mxGeometry relative="1" as="geometry">
            <Array as="points">
              <mxPoint x="1665" y="494" />
              <mxPoint x="1045" y="494" />
            </Array>
          </mxGeometry>
        </mxCell>
        <mxCell id="q8SPQW6we7VWeCYIPQvV-14" value="&lt;i style=&quot;border-color: var(--border-color); font-family: &amp;quot;Comic Sans MS&amp;quot;; font-size: 13px; font-weight: 700;&quot;&gt;use T/N as input&lt;/i&gt;" style="edgeLabel;html=1;align=center;verticalAlign=middle;resizable=0;points=[];" parent="q8SPQW6we7VWeCYIPQvV-13" vertex="1" connectable="0">
          <mxGeometry x="-0.9488" y="-2" relative="1" as="geometry">
            <mxPoint x="56" y="6" as="offset" />
          </mxGeometry>
        </mxCell>
        <mxCell id="Lb1ookzs8t3m_i60H8Mo-13" value="SASH" style="rounded=1;whiteSpace=wrap;html=1;sketch=1;curveFitting=1;jiggle=2;fontFamily=Comic Sans MS;fillColor=#e3c800;strokeColor=#B09500;fontColor=#000000;fontStyle=1;fontSize=13;" parent="1" vertex="1">
          <mxGeometry x="1620" y="600" width="180" height="60" as="geometry" />
        </mxCell>
        <mxCell id="Lb1ookzs8t3m_i60H8Mo-40" style="edgeStyle=orthogonalEdgeStyle;rounded=0;orthogonalLoop=1;jettySize=auto;html=1;exitX=1;exitY=0.5;exitDx=0;exitDy=0;entryX=0;entryY=0.5;entryDx=0;entryDy=0;sketch=1;curveFitting=1;jiggle=2;fontFamily=Comic Sans MS;fontStyle=1;fontSize=13;" parent="1" source="Lb1ookzs8t3m_i60H8Mo-14" target="Lb1ookzs8t3m_i60H8Mo-13" edge="1">
          <mxGeometry relative="1" as="geometry" />
        </mxCell>
        <mxCell id="Lb1ookzs8t3m_i60H8Mo-42" style="edgeStyle=orthogonalEdgeStyle;rounded=0;orthogonalLoop=1;jettySize=auto;html=1;exitX=0.5;exitY=1;exitDx=0;exitDy=0;entryX=0;entryY=0.25;entryDx=0;entryDy=0;sketch=1;curveFitting=1;jiggle=2;fontFamily=Comic Sans MS;fontStyle=1;fontSize=13;" parent="1" source="Lb1ookzs8t3m_i60H8Mo-14" target="Lb1ookzs8t3m_i60H8Mo-16" edge="1">
          <mxGeometry relative="1" as="geometry" />
        </mxCell>
        <mxCell id="Lb1ookzs8t3m_i60H8Mo-14" value="ONCOANALYSER_WGS" style="rounded=1;whiteSpace=wrap;html=1;sketch=1;curveFitting=1;jiggle=2;fontFamily=Comic Sans MS;fillColor=#e3c800;strokeColor=#B09500;fontColor=#000000;fontStyle=1;fontSize=13;" parent="1" vertex="1">
          <mxGeometry x="1280" y="600" width="180" height="60" as="geometry" />
        </mxCell>
        <mxCell id="xIPLPSmBIif0stZH-QoW-1" style="edgeStyle=orthogonalEdgeStyle;rounded=0;orthogonalLoop=1;jettySize=auto;html=1;exitX=0;exitY=0.5;exitDx=0;exitDy=0;entryX=0.75;entryY=1;entryDx=0;entryDy=0;endArrow=diamondThin;endFill=1;endSize=14;sketch=1;curveFitting=1;jiggle=2;dashed=1;" parent="1" source="Lb1ookzs8t3m_i60H8Mo-15" target="Lb1ookzs8t3m_i60H8Mo-8" edge="1">
          <mxGeometry relative="1" as="geometry" />
        </mxCell>
        <mxCell id="xIPLPSmBIif0stZH-QoW-2" value="&lt;i style=&quot;border-color: var(--border-color); font-family: &amp;quot;Comic Sans MS&amp;quot;; font-size: 13px; font-weight: 700;&quot;&gt;use T/N as input&lt;/i&gt;" style="edgeLabel;html=1;align=center;verticalAlign=middle;resizable=0;points=[];" parent="xIPLPSmBIif0stZH-QoW-1" vertex="1" connectable="0">
          <mxGeometry x="-0.3366" relative="1" as="geometry">
            <mxPoint x="8" y="-11" as="offset" />
          </mxGeometry>
        </mxCell>
        <mxCell id="Lb1ookzs8t3m_i60H8Mo-15" value="GPL" style="rounded=1;whiteSpace=wrap;html=1;sketch=1;curveFitting=1;jiggle=2;fontFamily=Comic Sans MS;fillColor=#e3c800;strokeColor=#B09500;fontColor=#000000;fontStyle=1;fontSize=13;" parent="1" vertex="1">
          <mxGeometry x="1280" y="390" width="180" height="60" as="geometry" />
        </mxCell>
        <mxCell id="Lb1ookzs8t3m_i60H8Mo-16" value="ONCOANALYSER_WGTS_EXISTING_BOTH" style="rounded=1;whiteSpace=wrap;html=1;sketch=1;curveFitting=1;jiggle=2;fontFamily=Comic Sans MS;fillColor=#e3c800;strokeColor=#B09500;fontColor=#000000;fontStyle=1;fontSize=13;" parent="1" vertex="1">
          <mxGeometry x="1500" y="730" width="300" height="60" as="geometry" />
        </mxCell>
        <mxCell id="Lb1ookzs8t3m_i60H8Mo-20" value="HOLMES&lt;br style=&quot;font-size: 13px;&quot;&gt;(BAM Fingerprint Extract)" style="rounded=1;whiteSpace=wrap;html=1;sketch=1;curveFitting=1;jiggle=2;fontFamily=Comic Sans MS;fillColor=#e3c800;strokeColor=#B09500;fontColor=#000000;fontStyle=1;fontSize=13;" parent="1" vertex="1">
          <mxGeometry x="1000" y="193" width="180" height="60" as="geometry" />
        </mxCell>
        <mxCell id="Lb1ookzs8t3m_i60H8Mo-44" value="PIERIAN_DX&lt;br style=&quot;font-size: 13px;&quot;&gt;(case&amp;nbsp;accession automation)" style="rounded=1;whiteSpace=wrap;html=1;sketch=1;curveFitting=1;jiggle=2;fontFamily=Comic Sans MS;fillColor=#e3c800;fontColor=#000000;strokeColor=#B09500;fontStyle=1;fontSize=13;" parent="1" vertex="1">
          <mxGeometry x="1000" y="40" width="180" height="60" as="geometry" />
        </mxCell>
        <mxCell id="Lb1ookzs8t3m_i60H8Mo-46" style="edgeStyle=orthogonalEdgeStyle;rounded=0;orthogonalLoop=1;jettySize=auto;html=1;exitX=0.37;exitY=1;exitDx=0;exitDy=0;entryX=0.556;entryY=-0.042;entryDx=0;entryDy=0;entryPerimeter=0;sketch=1;curveFitting=1;jiggle=2;fontStyle=1;fontSize=13;exitPerimeter=0;" parent="1" source="Lb1ookzs8t3m_i60H8Mo-5" target="Lb1ookzs8t3m_i60H8Mo-10" edge="1">
          <mxGeometry relative="1" as="geometry" />
        </mxCell>
        <mxCell id="Lb1ookzs8t3m_i60H8Mo-54" style="edgeStyle=orthogonalEdgeStyle;rounded=0;orthogonalLoop=1;jettySize=auto;html=1;exitX=1;exitY=0.5;exitDx=0;exitDy=0;entryX=0;entryY=0.5;entryDx=0;entryDy=0;sketch=1;curveFitting=1;jiggle=2;fontSize=13;" parent="1" source="Lb1ookzs8t3m_i60H8Mo-53" target="Lb1ookzs8t3m_i60H8Mo-1" edge="1">
          <mxGeometry relative="1" as="geometry" />
        </mxCell>
        <mxCell id="Lb1ookzs8t3m_i60H8Mo-53" value="Sequencer" style="rounded=1;whiteSpace=wrap;html=1;sketch=1;curveFitting=1;jiggle=2;fontFamily=Comic Sans MS;fontStyle=1;fillColor=#fa6800;strokeColor=#C73500;fontColor=#000000;fontSize=13;" parent="1" vertex="1">
          <mxGeometry x="210" y="240" width="90" height="60" as="geometry" />
        </mxCell>
        <mxCell id="Lb1ookzs8t3m_i60H8Mo-58" value="" style="html=1;shadow=0;dashed=0;align=center;verticalAlign=middle;shape=mxgraph.arrows2.jumpInArrow;dy=15;dx=38;arrowHead=55;rotation=90;sketch=1;curveFitting=1;jiggle=2;fontSize=13;" parent="1" vertex="1">
          <mxGeometry x="197" y="150.5" width="89.25" height="75.25" as="geometry" />
        </mxCell>
        <mxCell id="Lb1ookzs8t3m_i60H8Mo-60" value="&lt;font face=&quot;Comic Sans MS&quot;&gt;prep &amp;amp; load library&lt;/font&gt;" style="text;html=1;strokeColor=none;fillColor=none;align=center;verticalAlign=middle;whiteSpace=wrap;rounded=0;" parent="1" vertex="1">
          <mxGeometry x="230" y="135" width="100" height="25" as="geometry" />
        </mxCell>
        <mxCell id="Lb1ookzs8t3m_i60H8Mo-62" value="&lt;font face=&quot;Comic Sans MS&quot;&gt;Legend&lt;/font&gt;" style="swimlane;whiteSpace=wrap;html=1;" parent="1" vertex="1">
          <mxGeometry x="144" y="470" width="380" height="182" as="geometry">
            <mxRectangle x="200" y="540" width="80" height="30" as="alternateBounds" />
          </mxGeometry>
        </mxCell>
        <mxCell id="Lb1ookzs8t3m_i60H8Mo-47" value="AWS&lt;br&gt;Cloud" style="rounded=1;whiteSpace=wrap;html=1;fillColor=#e3c800;fontColor=#000000;strokeColor=#B09500;sketch=1;curveFitting=1;jiggle=2;shadow=0;fontFamily=Comic Sans MS;fontStyle=1" parent="Lb1ookzs8t3m_i60H8Mo-62" vertex="1">
          <mxGeometry x="200" y="50" width="70" height="50" as="geometry" />
        </mxCell>
        <mxCell id="Lb1ookzs8t3m_i60H8Mo-49" value="ICA&lt;br&gt;(DRAGEN)&lt;br&gt;Cloud" style="rounded=1;whiteSpace=wrap;html=1;fillColor=#b0e3e6;strokeColor=#0e8088;sketch=1;curveFitting=1;jiggle=2;shadow=0;fontFamily=Comic Sans MS;fontStyle=1" parent="Lb1ookzs8t3m_i60H8Mo-62" vertex="1">
          <mxGeometry x="290" y="50" width="70" height="50" as="geometry" />
        </mxCell>
        <mxCell id="Lb1ookzs8t3m_i60H8Mo-52" value="Basespace&lt;br&gt;Cloud" style="rounded=1;whiteSpace=wrap;html=1;fillColor=#d0cee2;strokeColor=#56517e;sketch=1;curveFitting=1;jiggle=2;shadow=0;fontFamily=Comic Sans MS;fontStyle=1" parent="Lb1ookzs8t3m_i60H8Mo-62" vertex="1">
          <mxGeometry x="110" y="50" width="70" height="50" as="geometry" />
        </mxCell>
        <mxCell id="Lb1ookzs8t3m_i60H8Mo-61" value="On Prem&lt;br&gt;Unimelb" style="rounded=1;whiteSpace=wrap;html=1;fillColor=#fa6800;strokeColor=#C73500;sketch=1;curveFitting=1;jiggle=2;shadow=0;fontFamily=Comic Sans MS;fontStyle=1;fontColor=#000000;" parent="Lb1ookzs8t3m_i60H8Mo-62" vertex="1">
          <mxGeometry x="20" y="50" width="70" height="50" as="geometry" />
        </mxCell>
        <mxCell id="q8SPQW6we7VWeCYIPQvV-21" value="" style="group" parent="Lb1ookzs8t3m_i60H8Mo-62" vertex="1" connectable="0">
          <mxGeometry x="60" y="118" width="233" height="53" as="geometry" />
        </mxCell>
        <mxCell id="q8SPQW6we7VWeCYIPQvV-18" value="" style="endArrow=classic;html=1;rounded=0;sketch=1;curveFitting=1;jiggle=2;strokeWidth=1;endSize=10;" parent="q8SPQW6we7VWeCYIPQvV-21" edge="1">
          <mxGeometry width="50" height="50" relative="1" as="geometry">
            <mxPoint y="14" as="sourcePoint" />
            <mxPoint x="53" y="14" as="targetPoint" />
          </mxGeometry>
        </mxCell>
        <mxCell id="q8SPQW6we7VWeCYIPQvV-19" value="" style="endArrow=diamondThin;html=1;rounded=0;sketch=1;curveFitting=1;jiggle=2;strokeWidth=2;endFill=1;endSize=14;" parent="q8SPQW6we7VWeCYIPQvV-21" edge="1">
          <mxGeometry width="50" height="50" relative="1" as="geometry">
            <mxPoint y="43" as="sourcePoint" />
            <mxPoint x="53" y="43" as="targetPoint" />
          </mxGeometry>
        </mxCell>
        <mxCell id="q8SPQW6we7VWeCYIPQvV-20" value="&lt;font face=&quot;Comic Sans MS&quot;&gt;trigger + input&amp;nbsp;dependency&lt;br&gt;&lt;br&gt;input dependency only&lt;/font&gt;" style="text;html=1;strokeColor=none;fillColor=none;align=center;verticalAlign=middle;whiteSpace=wrap;rounded=0;" parent="q8SPQW6we7VWeCYIPQvV-21" vertex="1">
          <mxGeometry x="64" width="169" height="53" as="geometry" />
        </mxCell>
        <mxCell id="Lb1ookzs8t3m_i60H8Mo-63" value="UMCCR BioInfo Platform - Automated Pipeline&lt;br&gt;(process flow diagram)" style="text;html=1;strokeColor=default;fillColor=none;align=center;verticalAlign=middle;whiteSpace=wrap;rounded=0;fontSize=20;fontFamily=Comic Sans MS;labelBackgroundColor=none;labelBorderColor=none;sketch=1;curveFitting=1;jiggle=2;shadow=0;glass=0;" parent="1" vertex="1">
          <mxGeometry x="706" y="841" width="470" height="80" as="geometry" />
        </mxCell>
        <mxCell id="q8SPQW6we7VWeCYIPQvV-2" value="&lt;font style=&quot;font-size: 12px;&quot; face=&quot;Comic Sans MS&quot;&gt;Lab Team&lt;/font&gt;" style="image;html=1;image=img/lib/clip_art/people/Scientist_Man_128x128.png" parent="1" vertex="1">
          <mxGeometry x="141" y="91" width="56" height="64" as="geometry" />
        </mxCell>
      </root>
    </mxGraphModel>
  </diagram>
  <diagram id="qGW5B3Pic5bbEyr2DCkm" name="Page-2">
    <mxGraphModel dx="2074" dy="1214" grid="0" gridSize="10" guides="1" tooltips="1" connect="1" arrows="1" fold="1" page="1" pageScale="1" pageWidth="2336" pageHeight="1654" math="0" shadow="0">
      <root>
        <mxCell id="0" />
        <mxCell id="1" parent="0" />
        <mxCell id="ugV33Qm52FKm-S9YYBpv-1" style="edgeStyle=orthogonalEdgeStyle;rounded=0;orthogonalLoop=1;jettySize=auto;html=1;entryX=0;entryY=0.5;entryDx=0;entryDy=0;fontFamily=Helvetica;fontStyle=1;fontSize=13;flowAnimation=1;" edge="1" parent="1" source="ugV33Qm52FKm-S9YYBpv-2" target="ugV33Qm52FKm-S9YYBpv-6">
          <mxGeometry relative="1" as="geometry" />
        </mxCell>
        <mxCell id="ugV33Qm52FKm-S9YYBpv-2" value="BSSH" style="rounded=1;whiteSpace=wrap;html=1;fontFamily=Helvetica;fontStyle=1;fillColor=#d0cee2;strokeColor=#56517e;fontSize=13;" vertex="1" parent="1">
          <mxGeometry x="360" y="240" width="90" height="60" as="geometry" />
        </mxCell>
        <mxCell id="ugV33Qm52FKm-S9YYBpv-3" style="edgeStyle=orthogonalEdgeStyle;rounded=0;orthogonalLoop=1;jettySize=auto;html=1;exitX=0.75;exitY=0;exitDx=0;exitDy=0;entryX=0;entryY=0.5;entryDx=0;entryDy=0;strokeColor=default;fontFamily=Helvetica;fontStyle=1;fontSize=13;flowAnimation=1;" edge="1" parent="1" source="ugV33Qm52FKm-S9YYBpv-6" target="ugV33Qm52FKm-S9YYBpv-15">
          <mxGeometry relative="1" as="geometry" />
        </mxCell>
        <mxCell id="ugV33Qm52FKm-S9YYBpv-4" style="edgeStyle=orthogonalEdgeStyle;rounded=0;orthogonalLoop=1;jettySize=auto;html=1;exitX=1;exitY=0.25;exitDx=0;exitDy=0;fontFamily=Helvetica;fontStyle=1;fontSize=13;flowAnimation=1;" edge="1" parent="1" source="ugV33Qm52FKm-S9YYBpv-6" target="ugV33Qm52FKm-S9YYBpv-9">
          <mxGeometry relative="1" as="geometry" />
        </mxCell>
        <mxCell id="ugV33Qm52FKm-S9YYBpv-5" style="edgeStyle=orthogonalEdgeStyle;rounded=0;orthogonalLoop=1;jettySize=auto;html=1;exitX=1;exitY=0.75;exitDx=0;exitDy=0;entryX=0;entryY=0.5;entryDx=0;entryDy=0;shadow=0;fontFamily=Helvetica;fontStyle=1;fontSize=13;flowAnimation=1;" edge="1" parent="1" source="ugV33Qm52FKm-S9YYBpv-6" target="ugV33Qm52FKm-S9YYBpv-12">
          <mxGeometry relative="1" as="geometry" />
        </mxCell>
        <mxCell id="ugV33Qm52FKm-S9YYBpv-65" style="edgeStyle=orthogonalEdgeStyle;rounded=0;orthogonalLoop=1;jettySize=auto;html=1;exitX=1;exitY=0.5;exitDx=0;exitDy=0;entryX=0;entryY=0.75;entryDx=0;entryDy=0;endArrow=diamondThin;endFill=1;endSize=14;flowAnimation=1;" edge="1" parent="1" source="ugV33Qm52FKm-S9YYBpv-6" target="ugV33Qm52FKm-S9YYBpv-21">
          <mxGeometry relative="1" as="geometry" />
        </mxCell>
        <mxCell id="ugV33Qm52FKm-S9YYBpv-66" value="&lt;i style=&quot;border-color: var(--border-color); font-size: 13px; font-weight: 700;&quot;&gt;use FASTQs as input&lt;/i&gt;" style="edgeLabel;html=1;align=center;verticalAlign=middle;resizable=0;points=[];" vertex="1" connectable="0" parent="ugV33Qm52FKm-S9YYBpv-65">
          <mxGeometry x="0.5461" y="3" relative="1" as="geometry">
            <mxPoint x="-13" y="-7" as="offset" />
          </mxGeometry>
        </mxCell>
        <mxCell id="ugV33Qm52FKm-S9YYBpv-72" style="edgeStyle=orthogonalEdgeStyle;rounded=0;orthogonalLoop=1;jettySize=auto;html=1;exitX=0.5;exitY=1;exitDx=0;exitDy=0;entryX=0;entryY=0.5;entryDx=0;entryDy=0;flowAnimation=1;endArrow=diamondThin;endFill=1;endSize=14;" edge="1" parent="1" source="ugV33Qm52FKm-S9YYBpv-6" target="ugV33Qm52FKm-S9YYBpv-28">
          <mxGeometry relative="1" as="geometry" />
        </mxCell>
        <mxCell id="ugV33Qm52FKm-S9YYBpv-73" value="&lt;i style=&quot;border-color: var(--border-color); font-size: 13px; font-weight: 700;&quot;&gt;use FASTQs as input&lt;/i&gt;" style="edgeLabel;html=1;align=center;verticalAlign=middle;resizable=0;points=[];" vertex="1" connectable="0" parent="ugV33Qm52FKm-S9YYBpv-72">
          <mxGeometry x="0.669" y="2" relative="1" as="geometry">
            <mxPoint x="15" y="-14" as="offset" />
          </mxGeometry>
        </mxCell>
        <mxCell id="ugV33Qm52FKm-S9YYBpv-78" style="edgeStyle=orthogonalEdgeStyle;rounded=0;orthogonalLoop=1;jettySize=auto;html=1;exitX=0.75;exitY=1;exitDx=0;exitDy=0;entryX=0;entryY=0.75;entryDx=0;entryDy=0;endArrow=diamondThin;endFill=1;endSize=14;flowAnimation=1;" edge="1" parent="1" source="ugV33Qm52FKm-S9YYBpv-6" target="ugV33Qm52FKm-S9YYBpv-16">
          <mxGeometry relative="1" as="geometry" />
        </mxCell>
        <mxCell id="ugV33Qm52FKm-S9YYBpv-79" value="&lt;i style=&quot;border-color: var(--border-color); font-size: 13px; font-weight: 700;&quot;&gt;use FASTQs as input&lt;/i&gt;" style="edgeLabel;html=1;align=center;verticalAlign=middle;resizable=0;points=[];" vertex="1" connectable="0" parent="ugV33Qm52FKm-S9YYBpv-78">
          <mxGeometry x="0.0947" y="1" relative="1" as="geometry">
            <mxPoint y="-11" as="offset" />
          </mxGeometry>
        </mxCell>
        <mxCell id="ugV33Qm52FKm-S9YYBpv-6" value="BCL_CONVERT" style="rounded=1;whiteSpace=wrap;html=1;fontFamily=Helvetica;fillColor=#b0e3e6;strokeColor=#0e8088;fontStyle=1;fontSize=13;" vertex="1" parent="1">
          <mxGeometry x="510" y="240" width="120" height="60" as="geometry" />
        </mxCell>
        <mxCell id="ugV33Qm52FKm-S9YYBpv-7" style="edgeStyle=orthogonalEdgeStyle;rounded=0;orthogonalLoop=1;jettySize=auto;html=1;exitX=1;exitY=0.5;exitDx=0;exitDy=0;entryX=0;entryY=0.5;entryDx=0;entryDy=0;fontFamily=Helvetica;fontStyle=1;fontSize=13;endArrow=classic;endFill=1;flowAnimation=1;" edge="1" parent="1" source="ugV33Qm52FKm-S9YYBpv-9" target="ugV33Qm52FKm-S9YYBpv-44">
          <mxGeometry relative="1" as="geometry" />
        </mxCell>
        <mxCell id="ugV33Qm52FKm-S9YYBpv-8" style="edgeStyle=orthogonalEdgeStyle;rounded=0;orthogonalLoop=1;jettySize=auto;html=1;exitX=0.5;exitY=1;exitDx=0;exitDy=0;entryX=0;entryY=0.25;entryDx=0;entryDy=0;fontFamily=Helvetica;fontStyle=1;fontSize=13;flowAnimation=1;endArrow=doubleBlock;endFill=1;" edge="1" parent="1" source="ugV33Qm52FKm-S9YYBpv-9" target="ugV33Qm52FKm-S9YYBpv-21">
          <mxGeometry relative="1" as="geometry" />
        </mxCell>
        <mxCell id="ugV33Qm52FKm-S9YYBpv-9" value="WGS_ALIGNMENT_QC" style="rounded=1;whiteSpace=wrap;html=1;fontFamily=Helvetica;fillColor=#b0e3e6;strokeColor=#0e8088;fontStyle=1;fontSize=13;" vertex="1" parent="1">
          <mxGeometry x="730" y="195" width="200" height="60" as="geometry" />
        </mxCell>
        <mxCell id="ugV33Qm52FKm-S9YYBpv-10" style="edgeStyle=orthogonalEdgeStyle;rounded=0;orthogonalLoop=1;jettySize=auto;html=1;exitX=0.64;exitY=1;exitDx=0;exitDy=0;entryX=0;entryY=0.25;entryDx=0;entryDy=0;fontFamily=Helvetica;fontStyle=1;fontSize=13;exitPerimeter=0;flowAnimation=1;endArrow=doubleBlock;endFill=1;" edge="1" parent="1" source="ugV33Qm52FKm-S9YYBpv-12" target="ugV33Qm52FKm-S9YYBpv-16">
          <mxGeometry relative="1" as="geometry" />
        </mxCell>
        <mxCell id="ugV33Qm52FKm-S9YYBpv-11" style="edgeStyle=orthogonalEdgeStyle;rounded=0;orthogonalLoop=1;jettySize=auto;html=1;exitX=1;exitY=0.5;exitDx=0;exitDy=0;entryX=0;entryY=0.75;entryDx=0;entryDy=0;fontFamily=Helvetica;endArrow=classic;endFill=1;flowAnimation=1;" edge="1" parent="1" source="ugV33Qm52FKm-S9YYBpv-12" target="ugV33Qm52FKm-S9YYBpv-44">
          <mxGeometry relative="1" as="geometry" />
        </mxCell>
        <mxCell id="ugV33Qm52FKm-S9YYBpv-12" value="WTS_ALIGNMENT_QC" style="rounded=1;whiteSpace=wrap;html=1;fontFamily=Helvetica;fillColor=#b0e3e6;strokeColor=#0e8088;fontStyle=1;fontSize=13;" vertex="1" parent="1">
          <mxGeometry x="730" y="370" width="200" height="60" as="geometry" />
        </mxCell>
        <mxCell id="ugV33Qm52FKm-S9YYBpv-13" style="edgeStyle=orthogonalEdgeStyle;rounded=0;orthogonalLoop=1;jettySize=auto;html=1;exitX=0.5;exitY=0;exitDx=0;exitDy=0;fontStyle=1;fontSize=13;fontFamily=Helvetica;flowAnimation=1;" edge="1" parent="1" source="ugV33Qm52FKm-S9YYBpv-15" target="ugV33Qm52FKm-S9YYBpv-45">
          <mxGeometry relative="1" as="geometry" />
        </mxCell>
        <mxCell id="ugV33Qm52FKm-S9YYBpv-14" style="edgeStyle=orthogonalEdgeStyle;rounded=0;orthogonalLoop=1;jettySize=auto;html=1;exitX=1;exitY=0.5;exitDx=0;exitDy=0;entryX=0;entryY=0.25;entryDx=0;entryDy=0;fontFamily=Helvetica;endArrow=classic;endFill=1;flowAnimation=1;" edge="1" parent="1" source="ugV33Qm52FKm-S9YYBpv-15" target="ugV33Qm52FKm-S9YYBpv-44">
          <mxGeometry relative="1" as="geometry" />
        </mxCell>
        <mxCell id="ugV33Qm52FKm-S9YYBpv-15" value="TSO_CTDNA_TUMOR_ONLY" style="rounded=1;whiteSpace=wrap;html=1;fontFamily=Helvetica;fillColor=#b0e3e6;strokeColor=#0e8088;fontStyle=1;fontSize=13;" vertex="1" parent="1">
          <mxGeometry x="730" y="100" width="200" height="60" as="geometry" />
        </mxCell>
        <mxCell id="ugV33Qm52FKm-S9YYBpv-63" style="edgeStyle=orthogonalEdgeStyle;rounded=0;orthogonalLoop=1;jettySize=auto;html=1;exitX=1;exitY=0.5;exitDx=0;exitDy=0;entryX=0.5;entryY=1;entryDx=0;entryDy=0;endArrow=diamondThin;endFill=1;flowAnimation=1;endSize=14;" edge="1" parent="1" source="ugV33Qm52FKm-S9YYBpv-16" target="ugV33Qm52FKm-S9YYBpv-24">
          <mxGeometry relative="1" as="geometry" />
        </mxCell>
        <mxCell id="ugV33Qm52FKm-S9YYBpv-64" value="&lt;i style=&quot;border-color: var(--border-color); font-size: 13px; font-weight: 700;&quot;&gt;use transcriptome&lt;br style=&quot;border-color: var(--border-color);&quot;&gt;bam as input&lt;/i&gt;" style="edgeLabel;html=1;align=center;verticalAlign=middle;resizable=0;points=[];" vertex="1" connectable="0" parent="ugV33Qm52FKm-S9YYBpv-63">
          <mxGeometry x="0.7139" relative="1" as="geometry">
            <mxPoint y="-43" as="offset" />
          </mxGeometry>
        </mxCell>
        <mxCell id="ugV33Qm52FKm-S9YYBpv-16" value="WTS_TUMOR_ONLY" style="rounded=1;whiteSpace=wrap;html=1;fontFamily=Helvetica;fillColor=#b0e3e6;strokeColor=#0e8088;fontStyle=1;fontSize=13;" vertex="1" parent="1">
          <mxGeometry x="1000" y="520" width="180" height="60" as="geometry" />
        </mxCell>
        <mxCell id="ugV33Qm52FKm-S9YYBpv-17" style="edgeStyle=orthogonalEdgeStyle;rounded=0;orthogonalLoop=1;jettySize=auto;html=1;exitX=1;exitY=0.5;exitDx=0;exitDy=0;fontFamily=Helvetica;fontStyle=1;fontSize=13;flowAnimation=1;" edge="1" parent="1" source="ugV33Qm52FKm-S9YYBpv-21" target="ugV33Qm52FKm-S9YYBpv-33">
          <mxGeometry relative="1" as="geometry" />
        </mxCell>
        <mxCell id="ugV33Qm52FKm-S9YYBpv-18" style="edgeStyle=orthogonalEdgeStyle;rounded=0;orthogonalLoop=1;jettySize=auto;html=1;exitX=0.5;exitY=1;exitDx=0;exitDy=0;entryX=0.5;entryY=0;entryDx=0;entryDy=0;fontFamily=Helvetica;fontStyle=1;fontSize=13;flowAnimation=1;" edge="1" parent="1" source="ugV33Qm52FKm-S9YYBpv-21" target="ugV33Qm52FKm-S9YYBpv-39">
          <mxGeometry relative="1" as="geometry">
            <Array as="points">
              <mxPoint x="1090" y="472" />
              <mxPoint x="1370" y="472" />
            </Array>
          </mxGeometry>
        </mxCell>
        <mxCell id="ugV33Qm52FKm-S9YYBpv-67" style="edgeStyle=orthogonalEdgeStyle;rounded=0;orthogonalLoop=1;jettySize=auto;html=1;exitX=0.25;exitY=1;exitDx=0;exitDy=0;entryX=0.25;entryY=0;entryDx=0;entryDy=0;endArrow=diamondThin;endFill=1;endSize=14;flowAnimation=1;" edge="1" parent="1" source="ugV33Qm52FKm-S9YYBpv-21" target="ugV33Qm52FKm-S9YYBpv-36">
          <mxGeometry relative="1" as="geometry">
            <Array as="points">
              <mxPoint x="1045" y="500" />
              <mxPoint x="1665" y="500" />
            </Array>
          </mxGeometry>
        </mxCell>
        <mxCell id="ugV33Qm52FKm-S9YYBpv-68" value="&lt;i style=&quot;border-color: var(--border-color); font-size: 13px; font-weight: 700;&quot;&gt;use T/N as input&lt;/i&gt;" style="edgeLabel;html=1;align=center;verticalAlign=middle;resizable=0;points=[];" vertex="1" connectable="0" parent="ugV33Qm52FKm-S9YYBpv-67">
          <mxGeometry x="0.3814" y="1" relative="1" as="geometry">
            <mxPoint x="149" y="92" as="offset" />
          </mxGeometry>
        </mxCell>
        <mxCell id="ugV33Qm52FKm-S9YYBpv-70" style="edgeStyle=orthogonalEdgeStyle;rounded=0;orthogonalLoop=1;jettySize=auto;html=1;exitX=0.75;exitY=1;exitDx=0;exitDy=0;entryX=0;entryY=0.5;entryDx=0;entryDy=0;endArrow=diamondThin;endFill=1;endSize=14;flowAnimation=1;" edge="1" parent="1" source="ugV33Qm52FKm-S9YYBpv-21" target="ugV33Qm52FKm-S9YYBpv-42">
          <mxGeometry relative="1" as="geometry" />
        </mxCell>
        <mxCell id="ugV33Qm52FKm-S9YYBpv-71" value="&lt;i style=&quot;border-color: var(--border-color); font-size: 13px; font-weight: 700;&quot;&gt;use T/N as input&lt;/i&gt;" style="edgeLabel;html=1;align=center;verticalAlign=middle;resizable=0;points=[];" vertex="1" connectable="0" parent="ugV33Qm52FKm-S9YYBpv-70">
          <mxGeometry x="-0.0146" y="2" relative="1" as="geometry">
            <mxPoint x="25" y="-9" as="offset" />
          </mxGeometry>
        </mxCell>
        <mxCell id="ugV33Qm52FKm-S9YYBpv-21" value="WGS_TUMOR_NORMAL" style="rounded=1;whiteSpace=wrap;html=1;fontFamily=Helvetica;fillColor=#b0e3e6;strokeColor=#0e8088;fontStyle=1;fontSize=13;" vertex="1" parent="1">
          <mxGeometry x="1000" y="300" width="180" height="60" as="geometry" />
        </mxCell>
        <mxCell id="ugV33Qm52FKm-S9YYBpv-24" value="RNASUM" style="rounded=1;whiteSpace=wrap;html=1;fontFamily=Helvetica;fillColor=#b0e3e6;strokeColor=#0e8088;fontStyle=1;fontSize=13;" vertex="1" parent="1">
          <mxGeometry x="1620" y="300" width="180" height="60" as="geometry" />
        </mxCell>
        <mxCell id="ugV33Qm52FKm-S9YYBpv-25" style="edgeStyle=orthogonalEdgeStyle;rounded=0;orthogonalLoop=1;jettySize=auto;html=1;exitX=1;exitY=0.5;exitDx=0;exitDy=0;entryX=0;entryY=0.5;entryDx=0;entryDy=0;fontFamily=Helvetica;fontStyle=1;fontSize=13;flowAnimation=1;" edge="1" parent="1" source="ugV33Qm52FKm-S9YYBpv-28" target="ugV33Qm52FKm-S9YYBpv-30">
          <mxGeometry relative="1" as="geometry" />
        </mxCell>
        <mxCell id="ugV33Qm52FKm-S9YYBpv-28" value="STAR_ALIGNMENT" style="rounded=1;whiteSpace=wrap;html=1;fontFamily=Helvetica;fillColor=#e3c800;strokeColor=#B09500;fontColor=#000000;fontStyle=1;fontSize=13;" vertex="1" parent="1">
          <mxGeometry x="730" y="720" width="180" height="60" as="geometry" />
        </mxCell>
        <mxCell id="ugV33Qm52FKm-S9YYBpv-29" style="edgeStyle=orthogonalEdgeStyle;rounded=0;orthogonalLoop=1;jettySize=auto;html=1;exitX=1;exitY=0.5;exitDx=0;exitDy=0;entryX=0;entryY=0.75;entryDx=0;entryDy=0;fontFamily=Helvetica;fontStyle=1;fontSize=13;flowAnimation=1;" edge="1" parent="1" source="ugV33Qm52FKm-S9YYBpv-30" target="ugV33Qm52FKm-S9YYBpv-43">
          <mxGeometry relative="1" as="geometry" />
        </mxCell>
        <mxCell id="ugV33Qm52FKm-S9YYBpv-30" value="ONCOANALYSER_WTS" style="rounded=1;whiteSpace=wrap;html=1;fontFamily=Helvetica;fillColor=#e3c800;strokeColor=#B09500;fontColor=#000000;fontStyle=1;fontSize=13;" vertex="1" parent="1">
          <mxGeometry x="1000" y="720" width="180" height="60" as="geometry" />
        </mxCell>
        <mxCell id="ugV33Qm52FKm-S9YYBpv-31" style="edgeStyle=orthogonalEdgeStyle;rounded=0;orthogonalLoop=1;jettySize=auto;html=1;exitX=1;exitY=0.5;exitDx=0;exitDy=0;fontFamily=Helvetica;fontStyle=1;fontSize=13;flowAnimation=1;" edge="1" parent="1" source="ugV33Qm52FKm-S9YYBpv-33" target="ugV33Qm52FKm-S9YYBpv-24">
          <mxGeometry relative="1" as="geometry" />
        </mxCell>
        <mxCell id="ugV33Qm52FKm-S9YYBpv-32" value="&lt;font style=&quot;font-size: 13px;&quot;&gt;PANCAN&lt;/font&gt;" style="edgeLabel;html=1;align=center;verticalAlign=middle;resizable=0;points=[];fontFamily=Helvetica;fontStyle=1;fontSize=13;" vertex="1" connectable="0" parent="ugV33Qm52FKm-S9YYBpv-31">
          <mxGeometry x="-0.1111" y="4" relative="1" as="geometry">
            <mxPoint x="9" y="-10" as="offset" />
          </mxGeometry>
        </mxCell>
        <mxCell id="ugV33Qm52FKm-S9YYBpv-33" value="UMCCRISE" style="rounded=1;whiteSpace=wrap;html=1;fontFamily=Helvetica;fillColor=#b0e3e6;strokeColor=#0e8088;fontStyle=1;fontSize=13;" vertex="1" parent="1">
          <mxGeometry x="1280" y="300" width="180" height="60" as="geometry" />
        </mxCell>
        <mxCell id="ugV33Qm52FKm-S9YYBpv-36" value="SASH" style="rounded=1;whiteSpace=wrap;html=1;fontFamily=Helvetica;fillColor=#e3c800;strokeColor=#B09500;fontColor=#000000;fontStyle=1;fontSize=13;" vertex="1" parent="1">
          <mxGeometry x="1620" y="626" width="180" height="60" as="geometry" />
        </mxCell>
        <mxCell id="ugV33Qm52FKm-S9YYBpv-37" style="edgeStyle=orthogonalEdgeStyle;rounded=0;orthogonalLoop=1;jettySize=auto;html=1;exitX=1;exitY=0.5;exitDx=0;exitDy=0;entryX=0;entryY=0.5;entryDx=0;entryDy=0;fontFamily=Helvetica;fontStyle=1;fontSize=13;flowAnimation=1;" edge="1" parent="1" source="ugV33Qm52FKm-S9YYBpv-39" target="ugV33Qm52FKm-S9YYBpv-36">
          <mxGeometry relative="1" as="geometry" />
        </mxCell>
        <mxCell id="ugV33Qm52FKm-S9YYBpv-38" style="edgeStyle=orthogonalEdgeStyle;rounded=0;orthogonalLoop=1;jettySize=auto;html=1;exitX=0.5;exitY=1;exitDx=0;exitDy=0;entryX=0;entryY=0.25;entryDx=0;entryDy=0;fontFamily=Helvetica;fontStyle=1;fontSize=13;flowAnimation=1;" edge="1" parent="1" source="ugV33Qm52FKm-S9YYBpv-39" target="ugV33Qm52FKm-S9YYBpv-43">
          <mxGeometry relative="1" as="geometry" />
        </mxCell>
        <mxCell id="ugV33Qm52FKm-S9YYBpv-39" value="ONCOANALYSER_WGS" style="rounded=1;whiteSpace=wrap;html=1;fontFamily=Helvetica;fillColor=#e3c800;strokeColor=#B09500;fontColor=#000000;fontStyle=1;fontSize=13;" vertex="1" parent="1">
          <mxGeometry x="1280" y="600" width="180" height="60" as="geometry" />
        </mxCell>
        <mxCell id="ugV33Qm52FKm-S9YYBpv-42" value="GPL" style="rounded=1;whiteSpace=wrap;html=1;fontFamily=Helvetica;fillColor=#e3c800;strokeColor=#B09500;fontColor=#000000;fontStyle=1;fontSize=13;" vertex="1" parent="1">
          <mxGeometry x="1280" y="390" width="180" height="60" as="geometry" />
        </mxCell>
        <mxCell id="ugV33Qm52FKm-S9YYBpv-43" value="ONCOANALYSER_WGTS_EXISTING_BOTH" style="rounded=1;whiteSpace=wrap;html=1;fontFamily=Helvetica;fillColor=#e3c800;strokeColor=#B09500;fontColor=#000000;fontStyle=1;fontSize=13;" vertex="1" parent="1">
          <mxGeometry x="1500" y="720" width="300" height="60" as="geometry" />
        </mxCell>
        <mxCell id="ugV33Qm52FKm-S9YYBpv-44" value="HOLMES&lt;br style=&quot;font-size: 13px;&quot;&gt;(BAM Fingerprint Extract)" style="rounded=1;whiteSpace=wrap;html=1;fontFamily=Helvetica;fillColor=#e3c800;strokeColor=#B09500;fontColor=#000000;fontStyle=1;fontSize=13;" vertex="1" parent="1">
          <mxGeometry x="1000" y="186" width="180" height="60" as="geometry" />
        </mxCell>
        <mxCell id="ugV33Qm52FKm-S9YYBpv-45" value="PIERIAN_DX&lt;br style=&quot;font-size: 13px;&quot;&gt;(case&amp;nbsp;accession automation)" style="rounded=1;whiteSpace=wrap;html=1;fontFamily=Helvetica;fillColor=#e3c800;fontColor=#000000;strokeColor=#B09500;fontStyle=1;fontSize=13;" vertex="1" parent="1">
          <mxGeometry x="1000" y="40" width="180" height="60" as="geometry" />
        </mxCell>
        <mxCell id="ugV33Qm52FKm-S9YYBpv-46" style="edgeStyle=orthogonalEdgeStyle;rounded=0;orthogonalLoop=1;jettySize=auto;html=1;exitX=0.37;exitY=1;exitDx=0;exitDy=0;entryX=0.5;entryY=0;entryDx=0;entryDy=0;fontStyle=1;fontSize=13;exitPerimeter=0;fontFamily=Helvetica;endArrow=doubleBlock;endFill=1;flowAnimation=1;" edge="1" parent="1" source="ugV33Qm52FKm-S9YYBpv-12" target="ugV33Qm52FKm-S9YYBpv-28">
          <mxGeometry relative="1" as="geometry" />
        </mxCell>
        <mxCell id="ugV33Qm52FKm-S9YYBpv-47" style="edgeStyle=orthogonalEdgeStyle;rounded=0;orthogonalLoop=1;jettySize=auto;html=1;exitX=1;exitY=0.5;exitDx=0;exitDy=0;entryX=0;entryY=0.5;entryDx=0;entryDy=0;fontSize=13;fontFamily=Helvetica;flowAnimation=1;" edge="1" parent="1" source="ugV33Qm52FKm-S9YYBpv-48" target="ugV33Qm52FKm-S9YYBpv-2">
          <mxGeometry relative="1" as="geometry" />
        </mxCell>
        <mxCell id="ugV33Qm52FKm-S9YYBpv-48" value="Sequencer" style="rounded=1;whiteSpace=wrap;html=1;fontFamily=Helvetica;fontStyle=1;fillColor=#fa6800;strokeColor=#C73500;fontColor=#000000;fontSize=13;" vertex="1" parent="1">
          <mxGeometry x="210" y="240" width="90" height="60" as="geometry" />
        </mxCell>
        <mxCell id="ugV33Qm52FKm-S9YYBpv-49" value="" style="html=1;shadow=0;dashed=0;align=center;verticalAlign=middle;shape=mxgraph.arrows2.jumpInArrow;dy=15;dx=38;arrowHead=55;rotation=90;fontSize=13;fontFamily=Helvetica;" vertex="1" parent="1">
          <mxGeometry x="197.63" y="149.38" width="88.5" height="76.75" as="geometry" />
        </mxCell>
        <mxCell id="ugV33Qm52FKm-S9YYBpv-50" value="&lt;font&gt;prep &amp;amp; load library&lt;/font&gt;" style="text;html=1;strokeColor=none;fillColor=none;align=center;verticalAlign=middle;whiteSpace=wrap;rounded=0;fontFamily=Helvetica;" vertex="1" parent="1">
          <mxGeometry x="244" y="125.5" width="100" height="25" as="geometry" />
        </mxCell>
        <mxCell id="ugV33Qm52FKm-S9YYBpv-51" value="&lt;font&gt;Legend&lt;/font&gt;" style="swimlane;whiteSpace=wrap;html=1;fontFamily=Helvetica;" vertex="1" parent="1">
          <mxGeometry x="161" y="444" width="380" height="202" as="geometry">
            <mxRectangle x="200" y="540" width="80" height="30" as="alternateBounds" />
          </mxGeometry>
        </mxCell>
        <mxCell id="ugV33Qm52FKm-S9YYBpv-52" value="AWS&lt;br&gt;Cloud" style="rounded=1;whiteSpace=wrap;html=1;fillColor=#e3c800;fontColor=#000000;strokeColor=#B09500;shadow=0;fontFamily=Helvetica;fontStyle=1" vertex="1" parent="ugV33Qm52FKm-S9YYBpv-51">
          <mxGeometry x="200" y="50" width="70" height="50" as="geometry" />
        </mxCell>
        <mxCell id="ugV33Qm52FKm-S9YYBpv-53" value="ICA&lt;br&gt;(DRAGEN)&lt;br&gt;Cloud" style="rounded=1;whiteSpace=wrap;html=1;fillColor=#b0e3e6;strokeColor=#0e8088;shadow=0;fontFamily=Helvetica;fontStyle=1" vertex="1" parent="ugV33Qm52FKm-S9YYBpv-51">
          <mxGeometry x="290" y="50" width="70" height="50" as="geometry" />
        </mxCell>
        <mxCell id="ugV33Qm52FKm-S9YYBpv-54" value="Basespace&lt;br&gt;Cloud" style="rounded=1;whiteSpace=wrap;html=1;fillColor=#d0cee2;strokeColor=#56517e;shadow=0;fontFamily=Helvetica;fontStyle=1" vertex="1" parent="ugV33Qm52FKm-S9YYBpv-51">
          <mxGeometry x="110" y="50" width="70" height="50" as="geometry" />
        </mxCell>
        <mxCell id="ugV33Qm52FKm-S9YYBpv-55" value="On Prem&lt;br&gt;Unimelb" style="rounded=1;whiteSpace=wrap;html=1;fillColor=#fa6800;strokeColor=#C73500;shadow=0;fontFamily=Helvetica;fontStyle=1;fontColor=#000000;" vertex="1" parent="ugV33Qm52FKm-S9YYBpv-51">
          <mxGeometry x="20" y="50" width="70" height="50" as="geometry" />
        </mxCell>
        <mxCell id="ugV33Qm52FKm-S9YYBpv-57" value="" style="endArrow=doubleBlock;html=1;rounded=0;strokeWidth=1;endSize=10;fontFamily=Helvetica;endFill=1;" edge="1" parent="ugV33Qm52FKm-S9YYBpv-51">
          <mxGeometry width="50" height="50" relative="1" as="geometry">
            <mxPoint x="66" y="127.0020754716981" as="sourcePoint" />
            <mxPoint x="119" y="127.0020754716981" as="targetPoint" />
          </mxGeometry>
        </mxCell>
        <mxCell id="ugV33Qm52FKm-S9YYBpv-58" value="" style="endArrow=diamondThin;html=1;rounded=0;strokeWidth=1;endFill=1;endSize=14;fontFamily=Helvetica;" edge="1" parent="ugV33Qm52FKm-S9YYBpv-51">
          <mxGeometry width="50" height="50" relative="1" as="geometry">
            <mxPoint x="64" y="183.9956603773585" as="sourcePoint" />
            <mxPoint x="117" y="183.9956603773585" as="targetPoint" />
          </mxGeometry>
        </mxCell>
        <mxCell id="ugV33Qm52FKm-S9YYBpv-69" value="" style="endArrow=classic;html=1;rounded=0;strokeWidth=1;endSize=10;fontFamily=Helvetica;endFill=1;" edge="1" parent="ugV33Qm52FKm-S9YYBpv-51">
          <mxGeometry width="50" height="50" relative="1" as="geometry">
            <mxPoint x="64" y="153.9969014084507" as="sourcePoint" />
            <mxPoint x="117" y="153.9969014084507" as="targetPoint" />
          </mxGeometry>
        </mxCell>
        <mxCell id="ugV33Qm52FKm-S9YYBpv-59" value="&lt;font&gt;trigger only&lt;br&gt;&lt;br&gt;trigger + input&amp;nbsp;dependency&lt;br&gt;&lt;br&gt;input dependency only&lt;/font&gt;" style="text;html=1;strokeColor=none;fillColor=none;align=left;verticalAlign=middle;whiteSpace=wrap;rounded=0;fontFamily=Helvetica;" vertex="1" parent="ugV33Qm52FKm-S9YYBpv-51">
          <mxGeometry x="138" y="111" width="169" height="87" as="geometry" />
        </mxCell>
        <mxCell id="ugV33Qm52FKm-S9YYBpv-60" value="&lt;font face=&quot;Helvetica&quot;&gt;UMCCR BioInfo Platform - Automated Pipeline&lt;br&gt;(process flow diagram)&lt;/font&gt;" style="text;html=1;strokeColor=default;fillColor=none;align=center;verticalAlign=middle;whiteSpace=wrap;rounded=0;fontSize=20;fontFamily=Helvetica;labelBackgroundColor=none;labelBorderColor=none;shadow=0;glass=0;" vertex="1" parent="1">
          <mxGeometry x="818" y="808" width="436" height="73" as="geometry" />
        </mxCell>
        <mxCell id="ugV33Qm52FKm-S9YYBpv-75" value="" style="shape=actor;whiteSpace=wrap;html=1;" vertex="1" parent="1">
          <mxGeometry x="153.75" y="93.75" width="40" height="60" as="geometry" />
        </mxCell>
        <mxCell id="ugV33Qm52FKm-S9YYBpv-77" value="&lt;font&gt;Lab Team&lt;/font&gt;" style="text;html=1;strokeColor=none;fillColor=none;align=center;verticalAlign=middle;whiteSpace=wrap;rounded=0;fontFamily=Helvetica;" vertex="1" parent="1">
          <mxGeometry x="123.75" y="156" width="100" height="25" as="geometry" />
        </mxCell>
      </root>
    </mxGraphModel>
  </diagram>
</mxfile>
